<svg xmlns="http://www.w3.org/2000/svg" xmlns:xlink="http://www.w3.org/1999/xlink" version="1.1" id="Layer_1" x="0px" y="0px" viewBox="0 0 100 100" style="enable-background:new 0 0 100 100;" xml:space="preserve"> <style type="text/css"> .st0{fill:#222335;} .st1{fill:#0C8CC9;} .st2{fill:#8CD4EE;} .st3{fill:#EA635C;} .st4{fill:#FDF4EC;} .st5{fill:#9A7D5B;} </style> <g> <path class="st0" d="M88.1,68.23l0,4.81c0,3.97-3.11,7.22-7.08,7.22H18.58c-3.83,0-7.08-3.25-7.08-7.22l0-4.81 c0-3.97,3.25-7.22,7.22-7.22H50l9.63,4.81l9.49-4.81h12.03C85.25,61.02,88.36,64.26,88.1,68.23z M14.16,56.08 c-1.34,0.14-2.51-0.81-2.65-2.13c-0.14-1.32,0.81-2.51,2.13-2.65c1.62-0.18,2.49-0.62,4.08-1.43c2.76-1.38,6.52-3.29,13.25-3.29 c6.75,0,10.51,1.91,13.25,3.29c1.98,1.01,2.99,1.52,5.8,1.52c2.69,0,3.8-0.51,5.78-1.51c2.77-1.4,6.53-3.3,13.25-3.3 c6.72,0,10.48,1.91,13.23,3.3c1.61,0.81,2.49,1.25,4.07,1.42c1.32,0.15,2.27,1.33,2.13,2.65c-0.15,1.32-1.32,2.27-2.65,2.13 c-2.45-0.27-3.96-1.03-5.7-1.9c-2.59-1.31-5.51-2.79-11.08-2.79c-5.56,0-8.48,1.47-11.07,2.77c-2.22,1.14-3.98,2.04-7.96,2.04 c-3.97,0-5.75-0.9-7.98-2.04c-2.57-1.3-5.48-2.77-11.07-2.77c-5.58,0-8.5,1.47-11.07,2.78C18.15,55.06,16.65,55.81,14.16,56.08z M88.5,29.73l0,4.81c0,3.97-3.25,7.22-7.22,7.22H18.86c-3.97,0-7.22-3.25-7.22-7.22l0-4.81c0-3.97,3.11-7.22,7.08-7.22h62.43 C85.25,22.52,88.36,25.76,88.5,29.73z M83.55,29.73c0-1.31-0.96-2.41-2.54-2.41H18.58c-1.17,0-2.27,1.1-2.27,2.41v4.81 c0,1.31,1.1,2.41,2.41,2.41h62.56c1.17,0,2.27-1.1,2.27-2.41V29.73z M83.56,73.05v-4.81c0-1.3-0.97-2.41-2.27-2.41H70.39l-8.75,4.3 c-0.68,0.34-1.41,0.51-2.15,0.51c-0.6,0-1.34-0.17-2.02-0.51l-8.61-4.3H18.72c-1.17,0-2.27,1.1-2.27,2.41v4.81 c0,1.3,0.97,2.41,2.27,2.41h62.56C82.45,75.45,83.55,74.35,83.56,73.05L83.56,73.05z"></path> </g> </svg>